<svg width="154" height="131" viewBox="0 0 154 131" fill="none" xmlns="http://www.w3.org/2000/svg">
<path d="M27.5332 128.686H146.541" stroke="#85E5C6" stroke-width="4"/>
<path d="M22.5742 40.6694C22.5742 32.4536 29.2344 25.7933 37.4503 25.7933H149.02C150.39 25.7933 151.5 26.9034 151.5 28.2727V112.57C151.5 113.939 150.39 115.05 149.02 115.05H25.0536C23.6843 115.05 22.5742 113.939 22.5742 112.57V40.6694Z" fill="white" stroke="#03514E" stroke-width="4"/>
<rect x="34.9707" y="40.6694" width="69.4215" height="59.5041" rx="2" fill="#85E5C6"/>
<path d="M99.4336 40.6694H102.392C103.497 40.6694 104.392 41.5649 104.392 42.6694V98.1736C104.392 99.2781 103.497 100.174 102.392 100.174H99.4336V40.6694Z" fill="#03514E"/>
<path d="M87.0366 92.7355L47.3672 92.7355" stroke="white" stroke-width="4"/>
<path d="M64.7227 85.2975C64.7227 83.9282 65.8327 82.8182 67.202 82.8182H78.359C79.7283 82.8182 80.8384 83.9282 80.8384 85.2975V90.2562H64.7227V85.2975Z" fill="#03514E"/>
<path d="M63.4838 85.2975C63.4838 82.5589 61.2637 80.3389 58.5251 80.3389C55.7865 80.3389 53.5664 82.5589 53.5664 85.2975V90.2562H63.4838V85.2975Z" fill="#FF621C"/>
<path d="M37.4512 121.248C37.4512 122.617 38.5612 123.727 39.9305 123.727H44.8892C46.2585 123.727 47.3685 122.617 47.3685 121.248V118.289C47.3685 117.185 46.4731 116.289 45.3685 116.289H39.4512C38.3466 116.289 37.4512 117.185 37.4512 118.289V121.248Z" fill="white" stroke="#03514E" stroke-width="4"/>
<path d="M126.707 121.248C126.707 122.617 127.817 123.727 129.186 123.727H134.145C135.514 123.727 136.624 122.617 136.624 121.248V118.289C136.624 117.185 135.729 116.289 134.624 116.289H128.707C127.602 116.289 126.707 117.185 126.707 118.289V121.248Z" fill="white" stroke="#03514E" stroke-width="4"/>
<line x1="116.311" y1="28.2727" x2="116.311" y2="113.81" stroke="#03514E" stroke-width="4"/>
<path d="M139.103 105.132C141.841 105.132 144.061 102.912 144.061 100.174L124.227 100.174L124.227 105.132L139.103 105.132Z" fill="#85E5C6"/>
<path d="M124.227 41.9091V56.7851H144.061V46.8677C144.061 44.1291 141.841 41.9091 139.103 41.9091H124.227Z" fill="#85E5C6"/>
<path d="M139.103 70.4215C139.103 73.1601 136.883 75.3802 134.144 75.3802C131.406 75.3802 129.186 73.1601 129.186 70.4215C129.186 67.6829 131.406 65.4628 134.144 65.4628C136.883 65.4628 139.103 67.6829 139.103 70.4215Z" fill="#FF621C"/>
<path d="M140.342 89.0165C140.342 92.4398 137.567 95.2149 134.144 95.2149C130.72 95.2149 127.945 92.4398 127.945 89.0165C127.945 85.5933 130.72 82.8182 134.144 82.8182C137.567 82.8182 140.342 85.5933 140.342 89.0165Z" fill="#FF621C"/>
<path d="M11.4043 6.9447L20.4737 18.7363" stroke="#FF621C" stroke-width="4"/>
<path d="M26.2891 1L29.7783 15.461" stroke="#FF621C" stroke-width="4"/>
<path d="M1.5 20.0663L14.5814 27.1496" stroke="#FF621C" stroke-width="4"/>
</svg>
