<svg width="125" height="154" viewBox="0 0 125 154" fill="none" xmlns="http://www.w3.org/2000/svg">
<path d="M95.9189 80.7162C97.5541 82.6892 100.027 83.9459 102.784 83.9459C107.703 83.9459 111.689 79.9595 111.689 75.0405C111.689 70.1216 107.703 66.1351 102.784 66.1351C101.108 66.1351 99.5271 66.5946 98.1892 67.4054" fill="white"/>
<path d="M95.9189 80.7162C97.5541 82.6892 100.027 83.9459 102.784 83.9459C107.703 83.9459 111.689 79.9595 111.689 75.0405C111.689 70.1216 107.703 66.1351 102.784 66.1351C101.108 66.1351 99.5271 66.5946 98.1892 67.4054" stroke="#03514E" stroke-width="3" stroke-miterlimit="10"/>
<path d="M100.919 71.0541C101.081 69.446 100.811 67.7568 100.041 66.2027C97.8513 61.7973 92.5135 60 88.1081 62.1892C87.3513 62.5676 86.6756 63.027 86.0811 63.5676" fill="white"/>
<path d="M100.919 71.0541C101.081 69.446 100.811 67.7568 100.041 66.2027C97.8513 61.7973 92.5135 60 88.1081 62.1892C87.3513 62.5676 86.6756 63.027 86.0811 63.5676" stroke="#03514E" stroke-width="3" stroke-miterlimit="10"/>
<path d="M81.9463 76.5135C83.0274 80.2163 86.4463 82.9325 90.5003 82.9325C94.0139 82.9325 97.0544 80.8919 98.5003 77.946" fill="white"/>
<path d="M81.9463 76.5135C83.0274 80.2163 86.4463 82.9325 90.5003 82.9325C94.0139 82.9325 97.0544 80.8919 98.5003 77.946" stroke="#03514E" stroke-width="3" stroke-miterlimit="10"/>
<path d="M85.4324 69.3783C83.7972 67.4054 81.3243 66.1486 78.5675 66.1486C73.6486 66.1486 69.6621 70.1351 69.6621 75.054C69.6621 79.9729 73.6486 83.9594 78.5675 83.9594C80.2432 83.9594 81.8243 83.5 83.1621 82.6892" fill="white"/>
<path d="M85.4324 69.3783C83.7972 67.4054 81.3243 66.1486 78.5675 66.1486C73.6486 66.1486 69.6621 70.1351 69.6621 75.054C69.6621 79.9729 73.6486 83.9594 78.5675 83.9594C80.2432 83.9594 81.8243 83.5 83.1621 82.6892" stroke="#03514E" stroke-width="3" stroke-miterlimit="10"/>
<path d="M13.8516 61.4595H111.149V126.324C111.149 133.788 105.099 139.838 97.6353 139.838H27.3651C19.9018 139.838 13.8516 133.788 13.8516 126.324V61.4595Z" fill="white" stroke="#03514E" stroke-width="4"/>
<path d="M13.8516 61.4594C13.8516 55.4888 18.6917 50.6486 24.6624 50.6486H100.338C106.309 50.6486 111.149 55.4888 111.149 61.4594H13.8516Z" fill="#85E5C6" stroke="#03514E" stroke-width="4"/>
<path d="M46.2832 50.6486C46.2832 46.1707 49.9133 42.5405 54.3913 42.5405H66.5535C71.0315 42.5405 74.6616 46.1707 74.6616 50.6486H46.2832Z" stroke="#03514E" stroke-width="4"/>
<path d="M62.5268 147.649C66.5122 147.649 69.743 144.381 69.743 140.351C69.743 136.321 66.5122 133.054 62.5268 133.054C58.5414 133.054 55.3105 136.321 55.3105 140.351C55.3105 144.381 58.5414 147.649 62.5268 147.649Z" fill="#FF621C"/>
<path d="M41.6205 149.23C44.8223 149.23 47.4178 146.604 47.4178 143.365C47.4178 140.126 44.8223 137.5 41.6205 137.5C38.4188 137.5 35.8232 140.126 35.8232 143.365C35.8232 146.604 38.4188 149.23 41.6205 149.23Z" fill="#FF621C"/>
<path d="M43.757 141.689C45.7721 141.689 47.4057 140.074 47.4057 138.081C47.4057 136.088 45.7721 134.473 43.757 134.473C41.742 134.473 40.1084 136.088 40.1084 138.081C40.1084 140.074 41.742 141.689 43.757 141.689Z" fill="#03514E"/>
<path d="M64.1622 135.892C65.4459 135.892 66.4865 134.839 66.4865 133.54C66.4865 132.242 65.4459 131.189 64.1622 131.189C62.8785 131.189 61.8379 132.242 61.8379 133.54C61.8379 134.839 62.8785 135.892 64.1622 135.892Z" fill="#03514E"/>
<path d="M56.4196 151.824C58.4123 151.824 60.0277 150.191 60.0277 148.176C60.0277 146.161 58.4123 144.527 56.4196 144.527C54.4269 144.527 52.8115 146.161 52.8115 148.176C52.8115 150.191 54.4269 151.824 56.4196 151.824Z" fill="#03514E"/>
<path d="M76.7429 138.5C78.7356 138.5 80.351 136.866 80.351 134.851C80.351 132.836 78.7356 131.203 76.7429 131.203C74.7502 131.203 73.1348 132.836 73.1348 134.851C73.1348 136.866 74.7502 138.5 76.7429 138.5Z" fill="#03514E"/>
<path d="M81.4191 150.649C84.4044 150.649 86.8245 147.926 86.8245 144.568C86.8245 141.209 84.4044 138.486 81.4191 138.486C78.4338 138.486 76.0137 141.209 76.0137 144.568C76.0137 147.926 78.4338 150.649 81.4191 150.649Z" fill="#FF621C"/>
<path d="M82.7037 147.77C84.1963 147.77 85.4064 146.548 85.4064 145.04C85.4064 143.533 84.1963 142.311 82.7037 142.311C81.211 142.311 80.001 143.533 80.001 145.04C80.001 146.548 81.211 147.77 82.7037 147.77Z" fill="#03514E"/>
<path d="M11.1487 58.7567H0.337891V63.5095C0.337891 63.5095 11.1487 60.7317 11.1487 72.0084C11.1487 83.285 11.1487 58.7567 11.1487 58.7567Z" fill="#03514E"/>
<path d="M113.851 58.7567H124.662V63.5095C124.662 63.5095 113.851 60.7317 113.851 72.0084C113.851 83.285 113.851 58.7567 113.851 58.7567Z" fill="#03514E"/>
<path d="M76.0833 58.5266C70.0731 58.5266 65.2021 63.2677 65.2021 69.1178C65.2021 73.5724 68.0264 77.3839 72.0274 78.9489C71.9538 82.7494 73.458 87.9396 80.0627 89.5468C86.6673 90.8325 89.6689 87.5707 90.7569 85.3773C95.366 86.1426 100.131 83.9323 102.32 79.6447C102.383 79.5211 102.444 79.3969 102.501 79.272C103.506 79.5674 104.572 79.7251 105.672 79.7251C111.683 79.7251 116.553 74.9839 116.553 69.1339C116.553 63.2838 111.683 58.5427 105.672 58.5427C102.554 58.5427 99.7323 59.8239 97.7455 61.8761C95.7759 59.1761 92.5305 57.4054 88.8634 57.4054C86.1164 57.4054 83.6081 58.3988 81.6932 60.0349C80.0594 59.0721 78.1291 58.5266 76.0833 58.5266Z" fill="white" stroke="#03514E" stroke-width="4" stroke-miterlimit="10"/>
<path d="M65.3369 2L63.2255 5.24902C61.9519 7.19843 62.4043 9.90595 64.2141 11.2778C66.6942 13.1369 67.2974 16.8191 65.5715 19.4906L63.7617 22.2703" stroke="#FF621C" stroke-width="4"/>
<path d="M53.58 10.1081L52.1724 13.3571C51.3234 15.3065 51.625 18.014 52.8316 19.3858C54.4849 21.245 54.8871 24.9272 53.7364 27.5986L52.5299 30.3784" stroke="#FF621C" stroke-width="4"/>
<path d="M77.9043 14.1621L76.4967 17.4111C75.6476 19.3605 75.9493 22.0681 77.1558 23.4399C78.8091 25.299 79.2113 28.9812 78.0607 31.6527L76.8541 34.4324" stroke="#FF621C" stroke-width="4"/>
<path d="M23.3105 152H101.689" stroke="#03514E" stroke-width="4"/>
<path d="M21.959 68.2162H27.3644V131.73H25.959C23.7498 131.73 21.959 129.939 21.959 127.73V68.2162Z" fill="#85E5C6"/>
</svg>
